<?xml version="1.0" encoding="UTF-8" standalone="no"?>
<svg
   xmlns:dc="http://purl.org/dc/elements/1.1/"
   xmlns:cc="http://creativecommons.org/ns#"
   xmlns:rdf="http://www.w3.org/1999/02/22-rdf-syntax-ns#"
   xmlns:svg="http://www.w3.org/2000/svg"
   xmlns="http://www.w3.org/2000/svg"
   xmlns:sodipodi="http://sodipodi.sourceforge.net/DTD/sodipodi-0.dtd"
   xmlns:inkscape="http://www.inkscape.org/namespaces/inkscape"
   version="1.1"
   id="Capa_1"
   x="0px"
   y="0px"
   viewBox="0 0 512 512"
   style="enable-background:new 0 0 512 512;"
   xml:space="preserve"
   sodipodi:docname="info-chocolate.svg"
   inkscape:version="1.0.1 (3bc2e813f5, 2020-09-07)"><metadata
   id="metadata7131"><rdf:RDF><cc:Work
       rdf:about=""><dc:format>image/svg+xml</dc:format><dc:type
         rdf:resource="http://purl.org/dc/dcmitype/StillImage" /><dc:title></dc:title></cc:Work></rdf:RDF></metadata><defs
   id="defs7129" /><sodipodi:namedview
   pagecolor="#ffffff"
   bordercolor="#666666"
   borderopacity="1"
   objecttolerance="10"
   gridtolerance="10"
   guidetolerance="10"
   inkscape:pageopacity="0"
   inkscape:pageshadow="2"
   inkscape:window-width="1366"
   inkscape:window-height="705"
   id="namedview7127"
   showgrid="false"
   inkscape:zoom="1.0507812"
   inkscape:cx="256"
   inkscape:cy="256"
   inkscape:window-x="-8"
   inkscape:window-y="-8"
   inkscape:window-maximized="1"
   inkscape:current-layer="Capa_1" />
<g
   id="g7094"
   style="fill:#2e1503;fill-opacity:1">
	<g
   id="g7092"
   style="fill:#2e1503;fill-opacity:1">
		<path
   d="M256,0C114.833,0,0,114.844,0,256s114.833,256,256,256s256-114.844,256-256S397.167,0,256,0z M256,426.667    c-11.771,0-21.333-9.573-21.333-21.333c0-11.76,9.563-21.333,21.333-21.333s21.333,9.573,21.333,21.333    C277.333,417.094,267.771,426.667,256,426.667z M277.333,352c0,5.896-4.771,10.667-10.667,10.667h-21.333    c-5.896,0-10.667-4.771-10.667-10.667V96c0-5.896,4.771-10.667,10.667-10.667h21.333c5.896,0,10.667,4.771,10.667,10.667V352z"
   id="path7090"
   style="fill:#2e1503;fill-opacity:1" />
	</g>
</g>
<g
   id="g7096">
</g>
<g
   id="g7098">
</g>
<g
   id="g7100">
</g>
<g
   id="g7102">
</g>
<g
   id="g7104">
</g>
<g
   id="g7106">
</g>
<g
   id="g7108">
</g>
<g
   id="g7110">
</g>
<g
   id="g7112">
</g>
<g
   id="g7114">
</g>
<g
   id="g7116">
</g>
<g
   id="g7118">
</g>
<g
   id="g7120">
</g>
<g
   id="g7122">
</g>
<g
   id="g7124">
</g>
</svg>
