<?xml version="1.0" encoding="UTF-8" standalone="no"?>
<svg
   xmlns:dc="http://purl.org/dc/elements/1.1/"
   xmlns:cc="http://creativecommons.org/ns#"
   xmlns:rdf="http://www.w3.org/1999/02/22-rdf-syntax-ns#"
   xmlns:svg="http://www.w3.org/2000/svg"
   xmlns="http://www.w3.org/2000/svg"
   xmlns:sodipodi="http://sodipodi.sourceforge.net/DTD/sodipodi-0.dtd"
   xmlns:inkscape="http://www.inkscape.org/namespaces/inkscape"
   version="1.1"
   id="Capa_1"
   x="0px"
   y="0px"
   width="395.71px"
   height="395.71px"
   viewBox="0 0 395.71 395.71"
   style="enable-background:new 0 0 395.71 395.71;"
   xml:space="preserve"
   sodipodi:docname="location-white.svg"
   inkscape:version="1.0.1 (3bc2e813f5, 2020-09-07)"><metadata
   id="metadata4653"><rdf:RDF><cc:Work
       rdf:about=""><dc:format>image/svg+xml</dc:format><dc:type
         rdf:resource="http://purl.org/dc/dcmitype/StillImage" /><dc:title></dc:title></cc:Work></rdf:RDF></metadata><defs
   id="defs4651" /><sodipodi:namedview
   pagecolor="#ffffff"
   bordercolor="#666666"
   borderopacity="1"
   objecttolerance="10"
   gridtolerance="10"
   guidetolerance="10"
   inkscape:pageopacity="0"
   inkscape:pageshadow="2"
   inkscape:window-width="1366"
   inkscape:window-height="705"
   id="namedview4649"
   showgrid="false"
   inkscape:zoom="1.3595815"
   inkscape:cx="197.855"
   inkscape:cy="197.855"
   inkscape:window-x="-8"
   inkscape:window-y="-8"
   inkscape:window-maximized="1"
   inkscape:current-layer="Capa_1" />
<g
   id="g4616"
   style="fill:#ffffff;fill-opacity:1">
	<path
   d="M197.849,0C122.131,0,60.531,61.609,60.531,137.329c0,72.887,124.591,243.177,129.896,250.388l4.951,6.738   c0.579,0.792,1.501,1.255,2.471,1.255c0.985,0,1.901-0.463,2.486-1.255l4.948-6.738c5.308-7.211,129.896-177.501,129.896-250.388   C335.179,61.609,273.569,0,197.849,0z M197.849,88.138c27.13,0,49.191,22.062,49.191,49.191c0,27.115-22.062,49.191-49.191,49.191   c-27.114,0-49.191-22.076-49.191-49.191C148.658,110.2,170.734,88.138,197.849,88.138z"
   id="path4614"
   style="fill:#ffffff;fill-opacity:1" />
</g>
<g
   id="g4618">
</g>
<g
   id="g4620">
</g>
<g
   id="g4622">
</g>
<g
   id="g4624">
</g>
<g
   id="g4626">
</g>
<g
   id="g4628">
</g>
<g
   id="g4630">
</g>
<g
   id="g4632">
</g>
<g
   id="g4634">
</g>
<g
   id="g4636">
</g>
<g
   id="g4638">
</g>
<g
   id="g4640">
</g>
<g
   id="g4642">
</g>
<g
   id="g4644">
</g>
<g
   id="g4646">
</g>
</svg>
