<?xml version="1.0" encoding="UTF-8" standalone="no"?>
<svg
   xmlns:dc="http://purl.org/dc/elements/1.1/"
   xmlns:cc="http://creativecommons.org/ns#"
   xmlns:rdf="http://www.w3.org/1999/02/22-rdf-syntax-ns#"
   xmlns:svg="http://www.w3.org/2000/svg"
   xmlns="http://www.w3.org/2000/svg"
   xmlns:sodipodi="http://sodipodi.sourceforge.net/DTD/sodipodi-0.dtd"
   xmlns:inkscape="http://www.inkscape.org/namespaces/inkscape"
   version="1.0"
   width="384.000000pt"
   height="159.000000pt"
   viewBox="0 0 384.000000 159.000000"
   preserveAspectRatio="xMidYMid meet"
   id="svg853"
   sodipodi:docname="logo-white.svg"
   inkscape:version="1.0.1 (3bc2e813f5, 2020-09-07)">
  <metadata
     id="metadata859">
    <rdf:RDF>
      <cc:Work
         rdf:about="">
        <dc:format>image/svg+xml</dc:format>
        <dc:type
           rdf:resource="http://purl.org/dc/dcmitype/StillImage" />
        <dc:title></dc:title>
      </cc:Work>
    </rdf:RDF>
  </metadata>
  <defs
     id="defs857" />
  <sodipodi:namedview
     pagecolor="#ffffff"
     bordercolor="#666666"
     borderopacity="1"
     objecttolerance="10"
     gridtolerance="10"
     guidetolerance="10"
     inkscape:pageopacity="0"
     inkscape:pageshadow="2"
     inkscape:window-width="1267"
     inkscape:window-height="728"
     id="namedview855"
     showgrid="false"
     inkscape:zoom="1.5273438"
     inkscape:cx="256"
     inkscape:cy="106"
     inkscape:window-x="78"
     inkscape:window-y="0"
     inkscape:window-maximized="0"
     inkscape:current-layer="svg853" />
  <g
     transform="translate(0.000000,159.000000) scale(0.100000,-0.100000)"
     fill="#000000"
     stroke="none"
     id="g851"
     style="fill:#ffffff;fill-opacity:1">
    <path
       d="M1396 1100 c-44 -14 -94 -68 -112 -122 -8 -26 -18 -48 -20 -48 -21 0 -64 35 -74 60 -7 16 -19 30 -26 30 -40 0 10 -80 65 -104 39 -18 41 -21 41 -65 0 -104 -32 -154 -101 -155 -56 -1 -71 21 -45 68 28 53 6 86 -50 72 -30 -8 -56 -61 -47 -97 19 -80 148 -113 244 -64 63 33 94 89 101 184 3 28 8 36 33 44 104 33 152 136 87 187 -26 21 -49 24 -96 10z m72 -32 c29 -29 6 -96 -44 -129 -45 -30 -54 -25 -54 29 0 83 57 141 98 100z"
       id="path847"
       style="fill:#ffffff;fill-opacity:1" />
    <path
       d="M2261 899 c-55 -72 -137 -147 -148 -135 -3 3 -1 23 5 45 23 75 6 131 -39 131 -38 0 -150 -97 -206 -179 -2 -3 -8 0 -13 5 -7 7 -5 26 6 57 18 54 13 92 -17 107 -38 21 -83 -6 -177 -105 -49 -52 -101 -99 -115 -106 -60 -27 -75 21 -30 103 26 47 58 76 71 64 3 -4 0 -12 -6 -18 -7 -7 -12 -17 -12 -24 0 -22 30 -24 50 -4 46 46 5 109 -62 95 -44 -9 -185 -155 -165 -170 8 -5 12 -16 9 -23 -7 -23 20 -73 46 -83 36 -14 87 6 139 54 l43 40 0 -27 c0 -40 44 -80 78 -71 31 7 92 51 92 66 0 5 13 9 29 9 17 0 33 5 36 10 12 20 25 9 25 -20 0 -32 30 -70 55 -70 24 0 67 25 94 54 14 14 34 26 46 26 26 0 72 33 125 91 40 43 40 43 25 10 -32 -65 -119 -207 -162 -265 -48 -63 -47 -80 4 -70 44 9 83 54 147 174 57 104 108 170 133 170 20 0 16 -18 -11 -53 -31 -40 -47 -82 -40 -102 12 -31 88 -11 128 34 25 27 36 27 36 -2 0 -40 24 -62 68 -62 43 0 86 30 98 67 3 10 11 18 18 18 16 0 51 38 43 46 -4 4 -13 1 -21 -5 -21 -18 -31 -8 -46 43 -14 51 -8 66 25 66 31 0 41 18 22 37 -26 26 -83 -1 -155 -76 -35 -36 -68 -76 -72 -88 -9 -21 -40 -33 -40 -15 0 4 14 39 31 79 48 108 29 129 -60 68 -28 -19 -53 -35 -55 -35 -3 0 1 15 8 33 15 36 12 53 -13 66 -14 8 -27 -3 -70 -60z m-417 -18 c10 -16 -14 -66 -37 -76 -16 -7 -22 -19 -22 -43 -1 -50 -46 -71 -53 -24 -4 24 30 96 61 130 21 23 42 28 51 13z m256 -16 c0 -25 -31 -65 -50 -65 -5 0 -10 -16 -10 -35 0 -23 -6 -37 -17 -43 -23 -12 -43 -5 -43 14 0 17 34 87 62 127 25 35 58 37 58 2z m482 -42 c-2 -27 -5 -49 -6 -49 0 -1 -20 -4 -43 -7 -35 -4 -41 -3 -36 12 7 18 73 91 84 91 4 0 4 -21 1 -47z m-19 -80 c11 -10 -13 -33 -34 -33 -18 0 -26 20 -12 33 8 9 38 9 46 0z"
       id="path849"
       style="fill:#ffffff;fill-opacity:1" />
  </g>
</svg>
