<?xml version="1.0" encoding="UTF-8" standalone="no"?>
<svg
   xmlns:dc="http://purl.org/dc/elements/1.1/"
   xmlns:cc="http://creativecommons.org/ns#"
   xmlns:rdf="http://www.w3.org/1999/02/22-rdf-syntax-ns#"
   xmlns:svg="http://www.w3.org/2000/svg"
   xmlns="http://www.w3.org/2000/svg"
   xmlns:sodipodi="http://sodipodi.sourceforge.net/DTD/sodipodi-0.dtd"
   xmlns:inkscape="http://www.inkscape.org/namespaces/inkscape"
   version="1.1"
   id="Capa_1"
   x="0px"
   y="0px"
   width="365.449px"
   height="365.449px"
   viewBox="0 0 365.449 365.449"
   style="enable-background:new 0 0 365.449 365.449;"
   xml:space="preserve"
   sodipodi:docname="mobile-white.svg"
   inkscape:version="1.0.1 (3bc2e813f5, 2020-09-07)"><metadata
   id="metadata5905"><rdf:RDF><cc:Work
       rdf:about=""><dc:format>image/svg+xml</dc:format><dc:type
         rdf:resource="http://purl.org/dc/dcmitype/StillImage" /><dc:title></dc:title></cc:Work></rdf:RDF></metadata><defs
   id="defs5903" /><sodipodi:namedview
   pagecolor="#ffffff"
   bordercolor="#666666"
   borderopacity="1"
   objecttolerance="10"
   gridtolerance="10"
   guidetolerance="10"
   inkscape:pageopacity="0"
   inkscape:pageshadow="2"
   inkscape:window-width="1366"
   inkscape:window-height="705"
   id="namedview5901"
   showgrid="false"
   inkscape:zoom="1.4721616"
   inkscape:cx="182.7245"
   inkscape:cy="182.7245"
   inkscape:window-x="-8"
   inkscape:window-y="-8"
   inkscape:window-maximized="1"
   inkscape:current-layer="Capa_1" />
<g
   id="g5868"
   style="fill:#ffffff;fill-opacity:1">
	<path
   d="M281.507,10.85C274.279,3.614,265.71,0,255.813,0H109.637c-9.9,0-18.464,3.617-25.697,10.85   c-7.233,7.229-10.85,15.796-10.85,25.693v292.361c0,9.896,3.617,18.462,10.85,25.693c7.233,7.234,15.797,10.852,25.697,10.852   h146.176c9.896,0,18.466-3.621,25.693-10.852c7.234-7.231,10.852-15.797,10.852-25.693V36.543   C292.358,26.646,288.745,18.083,281.507,10.85z M159.885,36.543h45.685c3.046,0,4.565,1.523,4.565,4.569   c0,3.045-1.52,4.57-4.565,4.57h-45.685c-3.045,0-4.568-1.525-4.568-4.57C155.316,38.066,156.839,36.543,159.885,36.543z    M198.861,345.036c-4.476,4.469-9.852,6.707-16.135,6.707c-6.28,0-11.656-2.238-16.13-6.707c-4.474-4.477-6.711-9.856-6.711-16.132   c0-6.283,2.24-11.66,6.711-16.133c4.471-4.469,9.851-6.714,16.13-6.714c6.284,0,11.66,2.245,16.135,6.714   c4.473,4.473,6.708,9.85,6.708,16.133S203.331,340.56,198.861,345.036z M264.954,283.225c0,2.471-0.903,4.62-2.714,6.424   c-1.813,1.807-3.949,2.707-6.42,2.707H109.637c-2.474,0-4.615-0.903-6.423-2.707s-2.712-3.953-2.712-6.424V82.229   c0-2.474,0.903-4.617,2.712-6.423c1.809-1.805,3.949-2.714,6.423-2.714h146.176c2.478,0,4.616,0.905,6.427,2.714   c1.811,1.807,2.71,3.949,2.71,6.423v200.995H264.954z"
   id="path5866"
   style="fill:#ffffff;fill-opacity:1" />
</g>
<g
   id="g5870">
</g>
<g
   id="g5872">
</g>
<g
   id="g5874">
</g>
<g
   id="g5876">
</g>
<g
   id="g5878">
</g>
<g
   id="g5880">
</g>
<g
   id="g5882">
</g>
<g
   id="g5884">
</g>
<g
   id="g5886">
</g>
<g
   id="g5888">
</g>
<g
   id="g5890">
</g>
<g
   id="g5892">
</g>
<g
   id="g5894">
</g>
<g
   id="g5896">
</g>
<g
   id="g5898">
</g>
</svg>
